<?xml version="1.0" standalone="no"?>
<!DOCTYPE svg PUBLIC "-//W3C//DTD SVG 20010904//EN"
 "http://www.w3.org/TR/2001/REC-SVG-20010904/DTD/svg10.dtd">
<svg version="1.0" xmlns="http://www.w3.org/2000/svg"
 width="84.000000pt" height="88.000000pt" viewBox="0 0 84.000000 88.000000"
 preserveAspectRatio="xMidYMid meet">
<metadata>
Created by potrace 1.10, written by Peter Selinger 2001-2011
</metadata>
<g transform="translate(0.000000,88.000000) scale(0.100000,-0.100000)"
fill="#81b3d2" stroke="none">
<path d="M200 840 l0 -40 -99 0 -99 0 -2 -380 -1 -380 421 0 420 0 0 380 -1
380 -99 0 -100 0 0 40 c0 33 -3 40 -20 40 -17 0 -20 -7 -20 -40 l0 -40 -80 0
-80 0 0 40 c0 33 -3 40 -20 40 -17 0 -20 -7 -20 -40 l0 -40 -80 0 -80 0 0 40
c0 33 -3 40 -20 40 -17 0 -20 -7 -20 -40z m0 -140 c0 -53 2 -60 20 -60 18 0
20 7 20 60 l0 60 80 0 80 0 0 -60 c0 -53 2 -60 20 -60 18 0 20 7 20 60 l0 60
80 0 80 0 0 -60 c0 -53 2 -60 20 -60 18 0 20 7 20 60 l0 60 80 0 80 0 0 -340
0 -340 -380 0 -380 0 0 340 0 340 80 0 80 0 0 -60z"/>
<path d="M160 520 l0 -40 60 0 60 0 0 40 0 40 -60 0 -60 0 0 -40z"/>
<path d="M360 520 l0 -40 60 0 60 0 0 40 0 40 -60 0 -60 0 0 -40z"/>
<path d="M560 520 l0 -40 60 0 60 0 0 40 0 40 -60 0 -60 0 0 -40z"/>
<path d="M160 400 l0 -40 60 0 60 0 0 40 0 40 -60 0 -60 0 0 -40z"/>
<path d="M360 400 l0 -40 60 0 60 0 0 40 0 40 -60 0 -60 0 0 -40z"/>
<path d="M560 400 l0 -40 60 0 60 0 0 40 0 40 -60 0 -60 0 0 -40z"/>
<path d="M160 280 l0 -40 60 0 60 0 0 40 0 40 -60 0 -60 0 0 -40z"/>
<path d="M360 280 l0 -40 60 0 60 0 0 40 0 40 -60 0 -60 0 0 -40z"/>
<path d="M560 280 l0 -40 60 0 60 0 0 40 0 40 -60 0 -60 0 0 -40z"/>
</g>
</svg>
