<?xml version="1.0" standalone="no"?>
<!DOCTYPE svg PUBLIC "-//W3C//DTD SVG 20010904//EN"
 "http://www.w3.org/TR/2001/REC-SVG-20010904/DTD/svg10.dtd">
<svg version="1.0" xmlns="http://www.w3.org/2000/svg"
 width="140.000000pt" height="188.000000pt" viewBox="0 0 140.000000 188.000000"
 preserveAspectRatio="xMidYMid meet">
<metadata>
Created by potrace 1.10, written by Peter Selinger 2001-2011
</metadata>
<g transform="translate(0.000000,188.000000) scale(0.100000,-0.100000)"
fill="#000000" stroke="none">
<path d="M360 1745 c-162 -18 -296 -33 -297 -34 -2 -1 -3 -264 -3 -586 l0
-585 320 -190 319 -191 321 191 320 191 0 584 0 585 -22 4 c-36 8 -610 66
-638 65 -14 -1 -158 -16 -320 -34z m778 -96 l112 -11 0 -219 0 -218 -192 113
c-106 63 -231 136 -277 164 l-85 50 -80 -48 c-45 -27 -169 -101 -276 -165
l-195 -116 -3 212 c-1 117 1 216 5 220 5 4 130 20 278 36 l270 28 165 -17 c91
-9 216 -22 278 -29z m-174 -341 c144 -83 266 -156 273 -162 9 -8 -16 -27 -97
-74 l-110 -63 -159 95 c-87 53 -162 96 -165 96 -3 0 -6 -12 -6 -27 0 -25 12
-35 103 -87 56 -33 120 -71 141 -84 l39 -24 -24 -14 c-26 -14 -13 -20 -181 80
l-78 46 0 -30 c0 -26 9 -35 91 -83 89 -54 90 -55 69 -70 -21 -14 -25 -14 -59
7 -20 13 -51 31 -68 40 l-33 17 0 -29 c0 -23 8 -33 40 -51 22 -12 40 -25 40
-29 0 -4 -19 -18 -43 -31 l-44 -24 -272 162 c-150 90 -271 164 -269 166 12 11
535 325 542 325 5 0 126 -68 270 -152z m286 -480 l0 -243 -275 -164 -275 -163
-278 165 -277 165 -3 237 c-2 192 0 236 11 233 7 -2 133 -74 280 -162 253
-150 267 -160 267 -188 l0 -30 -32 20 c-85 52 -341 202 -344 202 -2 0 -4 -12
-4 -28 0 -25 17 -37 190 -141 177 -106 190 -116 190 -143 0 -34 11 -38 -154
61 -61 37 -137 82 -169 100 l-57 32 0 -28 c0 -26 15 -37 182 -138 99 -60 185
-112 190 -114 5 -1 94 48 198 110 l189 113 3 125 3 125 80 48 c44 26 81 48 83
48 1 0 2 -109 2 -242z"/>
</g>
</svg>
